<svg preserveAspectRatio="none" width="100%" height="100%" overflow="visible" style="display: block;" viewBox="0 0 40 30" fill="none" xmlns="http://www.w3.org/2000/svg">
<g id="flag">
<path id="Vector" d="M0 0H40V30H0V0Z" fill="var(--fill-0, #012169)"/>
<path id="Vector_2" d="M4.6875 0L19.9375 11.3125L35.125 0H40V3.875L25 15.0625L40 26.1875V30H35L20 18.8125L5.0625 30H0V26.25L14.9375 15.125L0 4V0H4.6875Z" fill="var(--fill-0, white)"/>
<path id="Vector_3" d="M26.5 17.5625L40 27.5V30L23.0625 17.5625H26.5ZM15 18.8125L15.375 21L3.375 30H0L15 18.8125ZM40 0V0.1875L24.4375 11.9375L24.5625 9.1875L36.875 0H40ZM0 0L14.9375 11H11.1875L0 2.625V0Z" fill="var(--fill-0, #C8102E)"/>
<path id="Vector_4" d="M15.0625 0V30H25.0625V0H15.0625ZM0 10V20H40V10H0Z" fill="var(--fill-0, white)"/>
<path id="Vector_5" d="M0 12.0625V18.0625H40V12.0625H0ZM17.0625 0V30H23.0625V0H17.0625Z" fill="var(--fill-0, #C8102E)"/>
</g>
</svg>
