<svg preserveAspectRatio="none" width="100%" height="100%" overflow="visible" style="display: block;" viewBox="0 0 40 30" fill="none" xmlns="http://www.w3.org/2000/svg">
<g id="Group">
<path id="Vector" fill-rule="evenodd" clip-rule="evenodd" d="M0 0H40V30H0V0Z" fill="var(--fill-0, #229E45)"/>
<path id="Vector_2" fill-rule="evenodd" clip-rule="evenodd" d="M20.0876 27.25L38.9314 15.0188L19.9751 2.75L1.06885 15.0437L20.0876 27.25Z" fill="var(--fill-0, #F8E509)"/>
<path id="Vector_3" fill-rule="evenodd" clip-rule="evenodd" d="M28.3 15C28.3 19.3937 24.7313 22.9562 20.325 22.9562C18.7504 22.9538 17.212 22.4845 15.904 21.6078C14.5961 20.7311 13.5775 19.4863 12.9769 18.0308C12.3764 16.5752 12.2208 14.9743 12.53 13.4304C12.8391 11.8865 13.5991 10.4689 14.7138 9.3568C15.8285 8.24472 17.2479 7.4881 18.7925 7.18259C20.3372 6.87707 21.9377 7.03637 23.3918 7.64036C24.8459 8.24435 26.0884 9.2659 26.962 10.5759C27.8356 11.8858 28.3012 13.4254 28.3 15Z" fill="var(--fill-0, #2B49A3)"/>
<path id="Vector_4" fill-rule="evenodd" clip-rule="evenodd" d="M17.7062 19.7688L17.4562 19.625L17.2062 19.75L17.2624 19.4688L17.0624 19.2563L17.3437 19.225L17.4812 18.975L17.5999 19.2375L17.8749 19.2875L17.6687 19.475M23.0437 21.1188L22.7999 20.975L22.5499 21.1L22.5999 20.8188L22.4062 20.6125L22.6874 20.5813L22.8187 20.325L22.9437 20.5875L23.2187 20.6375L23.0062 20.8313M20.7437 18.9563L20.5312 18.8313L20.3124 18.9438L20.3624 18.7L20.1874 18.5188L20.4374 18.4938L20.5499 18.2688L20.6499 18.5L20.8937 18.5438L20.7062 18.7125M26.1437 18.1813L25.9312 18.0563L25.7124 18.1688L25.7624 17.925L25.5937 17.75L25.8374 17.725L25.9499 17.5063L26.0499 17.7313L26.2874 17.775L26.1062 17.9375M20.6499 16.5625L20.3999 16.425L20.1499 16.55L20.1999 16.2625L20.0062 16.0563L20.2874 16.025L20.4187 15.7688L20.5437 16.0313L20.8187 16.0813L20.6062 16.2813M14.0687 14.0938L13.8187 13.9563L13.5687 14.0813L13.6312 13.7938L13.4249 13.5875L13.7124 13.5563L13.8374 13.3L13.9624 13.5625L14.2374 13.6125L14.0312 13.8063M14.8624 17.3813L14.6124 17.2375L14.3624 17.3625L14.4187 17.0813L14.2187 16.875L14.4999 16.8375L14.6312 16.5875L14.7562 16.85L15.0312 16.9L14.8249 17.0938M23.0749 12.8875L22.8499 12.7625L22.6249 12.875L22.6749 12.625L22.4999 12.4375L22.7499 12.4063L22.8687 12.1813L22.9749 12.4188L23.2249 12.4625L23.0374 12.6313M22.6187 15.025L22.4499 14.925L22.2687 15.0125L22.3062 14.8125L22.1687 14.6688L22.3687 14.6438L22.4624 14.4688L22.5437 14.6563L22.7312 14.6875L22.5937 14.825M13.7062 17.975L13.5374 17.8813L13.3687 17.9625L13.4062 17.775L13.2749 17.6375L13.4624 17.6125L13.5499 17.4438L13.6312 17.6188L13.8187 17.6563L13.6749 17.7813M26.1874 18.7375L26.0499 18.6688L25.9124 18.7313L25.9437 18.5875L25.8374 18.4875L25.9874 18.4688L26.0624 18.3438L26.1249 18.4688L26.2812 18.5L26.1624 18.5938" fill="var(--fill-0, #FFFFEF)"/>
<path id="Vector_5" fill-rule="evenodd" clip-rule="evenodd" d="M13.7062 17.975L13.5374 17.8812L13.3687 17.9625L13.4062 17.775L13.2749 17.6375L13.4624 17.6125L13.5499 17.4437L13.6312 17.6187L13.8187 17.6562L13.6749 17.7812" fill="var(--fill-0, #FFFFEF)"/>
<path id="Vector_6" fill-rule="evenodd" clip-rule="evenodd" d="M13.7062 17.975L13.5374 17.8813L13.3687 17.9625L13.4062 17.775L13.2749 17.6375L13.4624 17.6125L13.5499 17.4438L13.6312 17.6188L13.8187 17.6563L13.6749 17.7813M16.3187 17.9688L16.1562 17.8813L15.9874 17.9625L16.0249 17.775L15.8937 17.6375L16.0812 17.6125L16.1687 17.4438L16.2499 17.6188L16.4374 17.65L16.2937 17.7813M15.9937 18.8438L15.8312 18.75L15.6624 18.8375L15.6999 18.65L15.5687 18.5063L15.7562 18.4813L15.8437 18.3125L15.9249 18.4875L16.1124 18.525L15.9687 18.65M21.4312 17.2625L21.2687 17.1625L21.0937 17.25L21.1312 17.0625L21.0062 16.9188L21.1937 16.9L21.2812 16.7313L21.3562 16.9063L21.5437 16.9375L21.4062 17.0688M19.8374 17.2563L19.6687 17.1625L19.4999 17.25L19.5374 17.0625L19.4124 16.9188L19.5999 16.9L19.6874 16.725L19.7624 16.9063L19.9499 16.9375L19.8124 17.0688M15.5124 16.7063L15.4062 16.6438L15.2999 16.6938L15.3249 16.575L15.2437 16.4875L15.3624 16.475L15.4124 16.3688L15.4624 16.4813L15.5812 16.5L15.4937 16.5813M25.9812 19.4188L25.8187 19.325L25.6499 19.4125L25.6874 19.225L25.5562 19.0813L25.7437 19.0563L25.8312 18.8875L25.9124 19.0625L26.0999 19.1L25.9562 19.225M24.6562 19.6L24.5187 19.5125L24.3749 19.5875L24.4062 19.425L24.2999 19.3125L24.4562 19.2938L24.5312 19.15L24.5937 19.3L24.7499 19.325L24.6312 19.4375M25.2812 19.5813L25.1562 19.5063L25.0249 19.5688L25.0499 19.425L24.9499 19.3188L25.0937 19.3L25.1624 19.175L25.2249 19.3L25.3687 19.3313L25.2624 19.4313M27.0812 18.0063L26.9562 17.9438L26.8312 18.0063L26.8624 17.8625L26.7624 17.7563L26.9062 17.7375L26.9687 17.6125L27.0312 17.7438L27.1624 17.7688L27.0624 17.8688M24.6374 20.4813L24.4812 20.3938L24.3124 20.4688L24.3499 20.2938L24.2249 20.1688L24.4124 20.15L24.4937 19.9938L24.5687 20.1563L24.7562 20.1875L24.6124 20.3063M24.6499 21.1938L24.4999 21.1063L24.3499 21.1875L24.3874 21.0125L24.2687 20.8875L24.4374 20.8625L24.5124 20.7063L24.5812 20.8688L24.7499 20.9L24.6249 21.025M23.4374 19.5813L23.3187 19.5063L23.1937 19.5688L23.2187 19.4313L23.1249 19.325L23.2624 19.3125L23.3249 19.1875L23.3874 19.3125L23.5249 19.3375L23.4249 19.4375M22.3124 19.5813L22.1874 19.5063L22.0624 19.5688L22.0937 19.4313L21.9937 19.325L22.1374 19.3125L22.1999 19.1875L22.2624 19.3125L22.3937 19.3375L22.2937 19.4375M20.3937 17.9L20.2687 17.8313L20.1437 17.8938L20.1749 17.75L20.0749 17.65L20.2124 17.6313L20.2749 17.5063L20.3374 17.6313L20.4749 17.6625L20.3749 17.7563M20.6062 21.3188L20.5062 21.2625L20.3937 21.3188L20.4187 21.1938L20.3374 21.1063L20.4562 21.0938L20.5124 20.9875L20.5624 21.1L20.6812 21.1188L20.5937 21.2M17.7062 15.7875L17.4562 15.6438L17.2062 15.7688L17.2624 15.4875L17.0624 15.2813L17.3437 15.2438L17.4812 14.9938L17.5999 15.2563L17.8749 15.3063L17.6687 15.5" fill="var(--fill-0, #FFFFEF)"/>
<path id="Vector_7" fill-rule="evenodd" clip-rule="evenodd" d="M27.775 17.8625C27.9298 17.4607 28.0511 17.0468 28.1375 16.625C23.9 12.9062 19.1813 11 13.2188 11.3938C13.0025 11.8122 12.8247 12.2494 12.6875 12.7C19.75 12.025 24.9375 15.15 27.775 17.8625Z" fill="var(--fill-0, white)"/>
<path id="Vector_8" d="M25.8752 15.775L26.0189 15.8562C25.9975 15.8987 25.9909 15.9471 26.0002 15.9937C26.0148 16.039 26.0461 16.077 26.0877 16.1C26.1314 16.1313 26.1752 16.15 26.2127 16.1437C26.2502 16.1437 26.2752 16.125 26.2939 16.1C26.3048 16.0834 26.3093 16.0634 26.3064 16.0438C26.3013 16.0207 26.2906 15.9992 26.2752 15.9812C26.2627 15.9625 26.2314 15.9187 26.1814 15.8687C26.1301 15.8157 26.0916 15.7516 26.0689 15.6812C26.0534 15.628 26.0574 15.571 26.0803 15.5205C26.1033 15.47 26.1436 15.4295 26.1939 15.4062C26.2394 15.3873 26.2896 15.3829 26.3377 15.3938C26.3965 15.4073 26.4518 15.4328 26.5002 15.4688C26.5877 15.5312 26.6439 15.5937 26.6627 15.6687C26.6713 15.7038 26.6725 15.7403 26.666 15.7759C26.6595 15.8114 26.6456 15.8452 26.6252 15.875L26.4752 15.7812C26.4939 15.7437 26.5002 15.7063 26.4877 15.675C26.4814 15.6438 26.4564 15.6125 26.4127 15.5875C26.3806 15.5617 26.3413 15.5464 26.3002 15.5437C26.2889 15.5434 26.2776 15.5461 26.2677 15.5516C26.2578 15.5571 26.2496 15.5652 26.2439 15.575C26.2314 15.5937 26.2314 15.6125 26.2377 15.6375C26.2439 15.6625 26.2752 15.7125 26.3377 15.775C26.4002 15.8375 26.4377 15.8937 26.4627 15.9312C26.485 15.9722 26.4951 16.0187 26.4918 16.0652C26.4885 16.1118 26.4719 16.1564 26.4439 16.1938C26.4147 16.2362 26.3733 16.2689 26.3252 16.2875C26.2783 16.3091 26.2259 16.3156 26.1752 16.3062C26.1189 16.2937 26.0627 16.2688 26.0002 16.225C25.9064 16.1625 25.8502 16.0937 25.8314 16.0187C25.8111 15.9337 25.8245 15.8441 25.8689 15.7688L25.8752 15.775ZM25.1502 15.3L25.3064 15.3813C25.2871 15.4244 25.2827 15.4728 25.2939 15.5188C25.3099 15.5616 25.341 15.5972 25.3814 15.6187C25.4314 15.65 25.4689 15.6625 25.5064 15.6562C25.5439 15.6562 25.5689 15.6375 25.5877 15.6062C25.5972 15.5914 25.6016 15.5738 25.6002 15.5562C25.6002 15.5375 25.5877 15.5125 25.5689 15.4937C25.5369 15.4551 25.5036 15.4176 25.4689 15.3813C25.4002 15.3125 25.3564 15.2563 25.3439 15.2063C25.3337 15.1741 25.3307 15.1401 25.335 15.1066C25.3393 15.0731 25.3509 15.041 25.3689 15.0125C25.3927 14.9739 25.4276 14.9434 25.4689 14.925C25.5119 14.9052 25.5598 14.8987 25.6064 14.9062C25.6643 14.916 25.7195 14.9372 25.7689 14.9688C25.8627 15.0312 25.9189 15.0938 25.9377 15.1625C25.9491 15.1976 25.9527 15.2348 25.9484 15.2715C25.9441 15.3082 25.9319 15.3435 25.9127 15.375L25.7564 15.2875C25.7752 15.2438 25.7814 15.2125 25.7689 15.1812C25.7564 15.15 25.7314 15.1188 25.6877 15.0938C25.6531 15.0689 25.6115 15.0558 25.5689 15.0562C25.5587 15.0569 25.5487 15.0602 25.54 15.0656C25.5313 15.0711 25.5241 15.0786 25.5189 15.0875C25.5064 15.1062 25.5064 15.125 25.5127 15.15C25.5189 15.175 25.5564 15.225 25.6189 15.2875C25.6814 15.35 25.7252 15.4 25.7439 15.4375C25.769 15.4767 25.7823 15.5222 25.7823 15.5688C25.7823 15.6153 25.769 15.6608 25.7439 15.7C25.717 15.7436 25.6779 15.7784 25.6314 15.8C25.5846 15.8216 25.5322 15.8281 25.4814 15.8188C25.4171 15.8079 25.3555 15.7845 25.3002 15.75C25.2194 15.7069 25.1572 15.6358 25.1252 15.55C25.101 15.4666 25.11 15.377 25.1502 15.3ZM24.2627 15.0625L24.7189 14.3125L25.2689 14.6562L25.1939 14.7812L24.7939 14.5312L24.6939 14.7L25.0689 14.9312L24.9877 15.0562L24.6127 14.825L24.4877 15.0312L24.9064 15.2812L24.8314 15.4062L24.2627 15.0625ZM22.9689 14L23.0377 13.875L23.3752 14.0437L23.2189 14.3562C23.1689 14.3687 23.1064 14.375 23.0314 14.3687C22.9594 14.3608 22.8895 14.3396 22.8252 14.3062C22.7496 14.2694 22.6849 14.2134 22.6377 14.1438C22.5947 14.0791 22.5729 14.0026 22.5752 13.925C22.5784 13.8442 22.5997 13.7652 22.6377 13.6938C22.6752 13.6186 22.7311 13.5541 22.8002 13.5063C22.8663 13.4606 22.9449 13.4365 23.0252 13.4375C23.0877 13.4375 23.1502 13.4563 23.2252 13.5C23.3252 13.5437 23.3877 13.6063 23.4189 13.675C23.4514 13.7432 23.4581 13.821 23.4377 13.8938L23.2689 13.8438C23.2793 13.8019 23.2749 13.7577 23.2564 13.7188C23.2377 13.6812 23.2064 13.6563 23.1564 13.6313C23.1273 13.6146 23.095 13.6043 23.0616 13.6011C23.0282 13.5979 22.9945 13.6018 22.9627 13.6125C22.9002 13.6313 22.8439 13.6875 22.8002 13.775C22.7564 13.8625 22.7377 13.9437 22.7564 14.0125C22.7651 14.0451 22.7807 14.0754 22.8023 14.1013C22.8239 14.1273 22.8509 14.1481 22.8814 14.1625C22.9127 14.1813 22.9502 14.1938 22.9877 14.1938C23.025 14.1994 23.0629 14.1994 23.1002 14.1938L23.1502 14.0938L22.9689 14ZM17.3314 12.6062L17.4564 11.7312L17.7189 11.775L17.7877 12.3875L18.0314 11.825L18.2939 11.8625L18.1689 12.725L18.0002 12.7L18.1064 12.0188L17.8314 12.675L17.6627 12.65L17.5939 11.9438L17.4939 12.6313L17.3314 12.6062ZM16.4502 12.5L16.5314 11.625L17.1752 11.6875L17.1627 11.8375L16.6939 11.7937L16.6752 11.9812L17.1127 12.025L17.0939 12.175L16.6564 12.1313L16.6377 12.3687L17.1252 12.4125L17.1127 12.5625L16.4502 12.5Z" fill="var(--fill-0, #309E3A)"/>
<g id="Group_2">
<path id="Vector_9" d="M13.5355 11.9562C13.5355 11.8625 13.5543 11.7937 13.5793 11.7312C13.6012 11.6868 13.6308 11.6466 13.6668 11.6125C13.6989 11.5801 13.7371 11.5546 13.7793 11.5375C13.8418 11.5187 13.9043 11.5062 13.9668 11.5062C14.098 11.5062 14.198 11.5562 14.2793 11.6312C14.318 11.679 14.3467 11.734 14.3639 11.793C14.3811 11.8521 14.3863 11.9139 14.3793 11.975C14.3793 12.1125 14.3355 12.225 14.2543 12.3062C14.2125 12.3448 14.1632 12.3742 14.1093 12.3925C14.0555 12.4108 13.9984 12.4176 13.9418 12.4125C13.8859 12.413 13.8305 12.4023 13.779 12.3808C13.7274 12.3593 13.6807 12.3275 13.6418 12.2875C13.564 12.1954 13.5258 12.0763 13.5355 11.9562Z" fill="var(--fill-0, #309E3A)"/>
<path id="Vector_10" d="M13.7169 11.9562C13.7169 12.05 13.7356 12.125 13.7794 12.1812C13.8231 12.2312 13.8794 12.2625 13.9544 12.2625C13.9868 12.2647 14.0193 12.2598 14.0496 12.2479C14.0799 12.236 14.1071 12.2175 14.1294 12.1937C14.1731 12.1437 14.1919 12.0687 14.1981 11.9625C14.1981 11.8625 14.1856 11.7875 14.1356 11.7375C14.1153 11.7123 14.0896 11.6919 14.0604 11.6779C14.0312 11.6638 13.9992 11.6564 13.9669 11.6562C13.934 11.6552 13.9013 11.6613 13.871 11.6743C13.8408 11.6873 13.8138 11.7067 13.7919 11.7312C13.7419 11.7812 13.7231 11.8562 13.7169 11.9562Z" fill="var(--fill-0, #F7FFFF)"/>
</g>
<g id="Group_3">
<path id="Vector_11" d="M14.5643 12.4063L14.5768 11.5313H14.9518C15.0456 11.5313 15.1081 11.5438 15.1518 11.5625C15.1956 11.575 15.2268 11.6063 15.2518 11.6438C15.2768 11.6813 15.2893 11.7313 15.2893 11.7875C15.2898 11.8477 15.2675 11.9057 15.2268 11.95C15.1806 11.9933 15.1212 12.0197 15.0581 12.025L15.1518 12.1C15.1768 12.125 15.2081 12.175 15.2456 12.2438L15.3518 12.4188H15.1393L15.0143 12.2188L14.9268 12.0938C14.9117 12.0766 14.8923 12.0637 14.8706 12.0563C14.8422 12.048 14.8127 12.0438 14.7831 12.0438H14.7456V12.4063H14.5643Z" fill="var(--fill-0, #309E3A)"/>
<path id="Vector_12" d="M14.752 11.9063H14.877C14.9645 11.9063 15.0208 11.9063 15.0395 11.8938C15.0583 11.8938 15.077 11.875 15.0895 11.8625C15.102 11.85 15.1083 11.8188 15.1083 11.8C15.1083 11.7625 15.102 11.7375 15.0833 11.725C15.0708 11.7063 15.0458 11.6938 15.0208 11.6875H14.8958L14.752 11.6813V11.9063Z" fill="var(--fill-0, white)"/>
</g>
<g id="Group_4">
<path id="Vector_13" d="M15.5643 11.575L15.8893 11.5937C15.9581 11.5937 16.0143 11.6 16.0518 11.6125C16.1005 11.6301 16.1436 11.6603 16.1768 11.7C16.2128 11.7437 16.2385 11.795 16.2518 11.85C16.2706 11.9062 16.2768 11.975 16.2706 12.0562C16.2705 12.12 16.26 12.1834 16.2393 12.2437C16.2143 12.3062 16.1768 12.3562 16.1331 12.3937C16.0967 12.4237 16.0539 12.4451 16.0081 12.4562C15.9706 12.4687 15.9143 12.4687 15.8518 12.4687L15.5206 12.45L15.5643 11.575Z" fill="var(--fill-0, #309E3A)"/>
<path id="Vector_14" d="M15.7328 11.7312L15.7015 12.3125H15.939C15.9703 12.3125 15.9953 12.3 16.014 12.2812C16.0328 12.2625 16.0515 12.2375 16.064 12.2C16.0765 12.1625 16.089 12.1062 16.089 12.0375L16.0828 11.8812C16.0739 11.8483 16.0567 11.8182 16.0328 11.7937C16.012 11.7729 15.9862 11.7578 15.9578 11.75C15.9105 11.7395 15.8624 11.7332 15.814 11.7312H15.7328Z" fill="var(--fill-0, white)"/>
</g>
<g id="Group_5">
<path id="Vector_15" d="M19.8456 13.1375L20.0519 12.2875L20.3269 12.35L20.5269 12.4125C20.5706 12.4375 20.6081 12.475 20.6269 12.5312C20.6519 12.5812 20.6519 12.6375 20.6394 12.7062C20.6269 12.7562 20.6081 12.8 20.5769 12.8312C20.554 12.8587 20.5253 12.8807 20.4929 12.8959C20.4605 12.911 20.4251 12.9188 20.3894 12.9187C20.3456 12.9187 20.2831 12.9062 20.2019 12.8875L20.0956 12.8562L20.0206 13.1812L19.8456 13.1375Z" fill="var(--fill-0, #309E3A)"/>
<path id="Vector_16" d="M20.1834 12.475L20.1334 12.7125L20.2272 12.7375C20.2897 12.75 20.3397 12.7625 20.3647 12.7562C20.389 12.7529 20.4117 12.742 20.4296 12.7252C20.4475 12.7084 20.4597 12.6865 20.4647 12.6625C20.4647 12.6312 20.4647 12.6062 20.4522 12.5812C20.4385 12.5558 20.4164 12.5359 20.3897 12.525L20.2709 12.4937L20.1897 12.475H20.1834Z" fill="var(--fill-0, white)"/>
</g>
<g id="Group_6">
<path id="Vector_17" d="M20.6603 13.3813L20.954 12.5563L21.2978 12.6813C21.3915 12.7125 21.4478 12.7438 21.4853 12.7688C21.5165 12.8 21.5415 12.8313 21.5478 12.8813C21.554 12.9313 21.5603 12.975 21.5478 13.025C21.5228 13.0875 21.4853 13.1313 21.4353 13.1625C21.3853 13.1875 21.3228 13.1938 21.2478 13.1813C21.2728 13.2125 21.2978 13.2438 21.3103 13.2813L21.3603 13.45L21.3978 13.6438L21.204 13.575L21.1415 13.35C21.1302 13.2991 21.1156 13.249 21.0978 13.2C21.0895 13.1806 21.0766 13.1634 21.0603 13.15C21.0478 13.1313 21.0228 13.1188 20.979 13.1063L20.9478 13.0938L20.8228 13.4438L20.6603 13.3813Z" fill="var(--fill-0, #309E3A)"/>
<path id="Vector_18" d="M20.9973 12.9625L21.1161 13.0063C21.1973 13.0375 21.2473 13.05 21.2723 13.05C21.2911 13.05 21.3098 13.05 21.3286 13.0313C21.3473 13.0188 21.3598 13 21.3661 12.975C21.3786 12.95 21.3786 12.925 21.3661 12.9C21.3568 12.8758 21.3391 12.8558 21.3161 12.8438L21.1911 12.8L21.0661 12.7563L20.9911 12.9625H20.9973Z" fill="var(--fill-0, white)"/>
</g>
<g id="Group_7">
<path id="Vector_19" d="M21.6853 13.35C21.7068 13.2769 21.743 13.2088 21.7916 13.15C21.8232 13.1123 21.8613 13.0806 21.9041 13.0563C21.9428 13.0344 21.9851 13.0196 22.0291 13.0125C22.0916 13.0125 22.1541 13.0125 22.2228 13.0375C22.2787 13.0514 22.331 13.0769 22.3762 13.1125C22.4215 13.148 22.4587 13.1928 22.4853 13.2438C22.5353 13.3438 22.5353 13.4625 22.4978 13.6C22.4669 13.7182 22.3905 13.8193 22.2853 13.8813C22.1916 13.9375 22.0791 13.9438 21.9603 13.9063C21.9046 13.8921 21.8525 13.8664 21.8073 13.8309C21.7621 13.7954 21.7248 13.7508 21.6978 13.7C21.6728 13.6454 21.6588 13.5863 21.6567 13.5263C21.6545 13.4662 21.6643 13.4063 21.6853 13.35Z" fill="var(--fill-0, #309E3A)"/>
<path id="Vector_20" d="M21.86 13.4C21.835 13.4938 21.8288 13.575 21.86 13.6375C21.8913 13.7 21.935 13.7375 22.0038 13.7625C22.0663 13.7813 22.1288 13.775 22.1913 13.7375C22.2538 13.7063 22.2913 13.6375 22.3225 13.5375C22.3538 13.4438 22.3538 13.3688 22.3225 13.3063C22.3102 13.2766 22.2915 13.2501 22.2677 13.2285C22.2439 13.2069 22.2157 13.1907 22.185 13.1813C22.1543 13.1707 22.1216 13.1668 22.0892 13.1701C22.0568 13.1733 22.0256 13.1835 21.9975 13.2C21.935 13.2375 21.8913 13.3 21.86 13.4Z" fill="var(--fill-0, white)"/>
</g>
<g id="Group_8">
<path id="Vector_21" d="M23.3898 14.5688L23.7898 13.7938L24.121 13.9625C24.1835 13.9925 24.2405 14.0326 24.2898 14.0813C24.321 14.1125 24.3398 14.15 24.3398 14.2C24.3398 14.25 24.3398 14.2938 24.3148 14.3375C24.2907 14.3937 24.246 14.4385 24.1898 14.4625C24.1273 14.475 24.0648 14.475 23.996 14.45C24.021 14.4875 24.0335 14.525 24.046 14.5563C24.0585 14.5938 24.0648 14.65 24.071 14.7313L24.0835 14.9313L23.896 14.8375L23.871 14.6063C23.8681 14.5539 23.8618 14.5017 23.8523 14.45C23.848 14.4267 23.8372 14.405 23.821 14.3875L23.746 14.3438L23.7148 14.325L23.546 14.65L23.3898 14.5688Z" fill="var(--fill-0, #309E3A)"/>
<path id="Vector_22" d="M23.7767 14.2L23.8955 14.2625C23.9705 14.3 24.0205 14.325 24.0392 14.325C24.058 14.325 24.083 14.325 24.1017 14.3125C24.1205 14.3063 24.133 14.2875 24.1455 14.2625C24.158 14.2375 24.1642 14.2125 24.158 14.1875C24.1503 14.1627 24.135 14.1408 24.1142 14.125C24.0777 14.1026 24.0401 14.0817 24.0017 14.0625L23.8767 14L23.7767 14.2Z" fill="var(--fill-0, white)"/>
</g>
<g id="Group_9">
<path id="Vector_23" d="M26.626 16.1687C26.6665 16.1045 26.7196 16.0492 26.7823 16.0062C26.8243 15.9793 26.8709 15.9603 26.9198 15.95C26.9651 15.9407 27.0119 15.9407 27.0573 15.95C27.1198 15.9625 27.176 15.9875 27.2323 16.025C27.2809 16.0553 27.3227 16.0954 27.355 16.1427C27.3873 16.1901 27.4093 16.2436 27.4198 16.3C27.4385 16.4062 27.4073 16.525 27.3323 16.6437C27.2695 16.747 27.1684 16.8212 27.051 16.85C26.9951 16.8621 26.9372 16.8622 26.8812 16.8503C26.8252 16.8385 26.7723 16.8149 26.726 16.7812C26.6774 16.7509 26.6356 16.7108 26.6033 16.6635C26.571 16.6161 26.549 16.5626 26.5385 16.5062C26.5198 16.3937 26.551 16.2812 26.626 16.1687Z" fill="var(--fill-0, #309E3A)"/>
<path id="Vector_24" d="M26.7823 16.2687C26.7198 16.35 26.7011 16.425 26.7136 16.4937C26.7182 16.5254 26.7295 16.5557 26.7467 16.5826C26.7639 16.6096 26.7867 16.6325 26.8136 16.65C26.8761 16.6937 26.9386 16.7062 27.0011 16.6875C27.0636 16.6687 27.1261 16.625 27.1823 16.5375C27.2386 16.45 27.2636 16.375 27.2511 16.3125C27.2448 16.25 27.2073 16.1937 27.1511 16.15C27.0948 16.1062 27.0261 16.1 26.9636 16.1187C26.9011 16.1312 26.8386 16.1812 26.7761 16.2687H26.7823Z" fill="var(--fill-0, white)"/>
</g>
<path id="Vector_25" d="M18.8623 12.7813L19.0061 12.1688L19.4561 12.275L19.4373 12.375L19.1061 12.3L19.0748 12.4375L19.3811 12.5063L19.3561 12.6125L19.0498 12.5375L19.0123 12.7063L19.3561 12.7875L19.3311 12.8875L18.8623 12.7813Z" fill="var(--fill-0, #309E3A)"/>
</g>
</svg>
