<svg preserveAspectRatio="none" width="100%" height="100%" overflow="visible" style="display: block;" viewBox="0 0 1174 696" fill="none" xmlns="http://www.w3.org/2000/svg">
<path id="Vector" d="M1131.69 679.307C1148.85 668.282 1161.33 654.33 1168.63 637.948C1176.05 621.38 1175.8 603.752 1167.75 585.689C1160.02 568.062 1140.93 553.05 1109.42 540.032C1071.43 523.775 1037.3 506.584 1008.17 489.019C979.592 471.89 956.447 451.522 939.29 428.413C922.258 405.491 911.029 378.272 905.975 347.439C900.797 316.483 902.793 278.986 911.964 235.883C919.7 199.507 933.301 164.75 952.454 132.61C971.545 100.781 996.437 72.7517 1026.26 49.4562C1051.84 29.6488 1081.47 13.0804 1114.54 0H247.18C192.466 0 138.75 44.2241 127.146 98.7879L0 696H1078.17C1096.63 696 1114.6 690.394 1131.69 679.369" fill="var(--fill-0, #000614)"/>
</svg>
